<svg width="68" height="56" viewBox="0 0 68 56" fill="none" xmlns="http://www.w3.org/2000/svg">
<path d="M30.0369 7H38.4625V38.7958C34.8659 39.4036 31.2051 39.7172 27.5336 39.732C17.2444 39.7233 11.8894 35.938 11.8894 28.6685C11.8894 21.6685 17.5695 17.1185 26.3734 17.1185C27.6081 17.0987 28.8404 17.2164 30.0369 17.4685V7ZM30.0369 22.9985C29.1209 22.7497 28.1601 22.6313 27.1957 22.6485C22.9457 22.6485 20.4744 24.7888 20.4744 28.539C20.4744 32.1913 22.8267 34.2073 27.1426 34.2073C28.1113 34.2071 29.0786 34.1486 30.0369 34.0323V23.0073V22.9985Z" fill="#44B78B"/>
<path d="M51.85 17.6033V33.5283C51.85 39.011 51.3506 41.6465 49.8886 43.9198C48.3965 46.2312 45.9567 48.0314 43.0036 49L35.1879 45.9673C38.0273 45.1665 40.4054 43.5273 41.8625 41.3665C43.0652 39.4048 43.4456 37.1315 43.4456 31.1518V17.6033H51.85ZM43.4371 7.035H51.8606V14.084H43.4371V7.035Z" fill="#44B78B"/>
</svg>
